<svg width="28" height="28" viewBox="0 0 28 28" fill="none" xmlns="http://www.w3.org/2000/svg">
<path fill-rule="evenodd" clip-rule="evenodd" d="M7.34261 5.79307C4.23133 8.05355 2.67568 9.18379 2.06469 10.8533C2.01568 10.9872 1.97159 11.1229 1.93253 11.2601C1.44551 12.9699 2.03971 14.7987 3.22811 18.4562C4.41652 22.1137 5.01072 23.9425 6.40973 25.0395C6.52195 25.1275 6.63737 25.2113 6.75574 25.2909C8.23137 26.2824 10.1542 26.2824 14 26.2824C17.8458 26.2824 19.7686 26.2824 21.2443 25.2909C21.3626 25.2113 21.4781 25.1275 21.5903 25.0395C22.9893 23.9425 23.5835 22.1137 24.7719 18.4562C25.9603 14.7987 26.5545 12.9699 26.0675 11.2601C26.0284 11.1229 25.9843 10.9872 25.9353 10.8533C25.3243 9.18379 23.7687 8.05356 20.6574 5.79308C17.5461 3.5326 15.9905 2.40235 14.2139 2.33717C14.0713 2.33194 13.9287 2.33194 13.7862 2.33717C12.0095 2.40235 10.4539 3.53259 7.34261 5.79307ZM11.6667 19.9145C11.1834 19.9145 10.7917 20.3063 10.7917 20.7895C10.7917 21.2728 11.1834 21.6645 11.6667 21.6645H16.3333C16.8166 21.6645 17.2083 21.2728 17.2083 20.7895C17.2083 20.3063 16.8166 19.9145 16.3333 19.9145H11.6667Z" fill="#42C83C"/>
</svg>
